Coordinates
version=1
nRows=26
nColumns=24
inDegrees=yes

Units are S.I. units (second, meters, Newtons, ...)
Angles are in degrees.

endheader
time	pelvis_tilt	pelvis_list	pelvis_rotation	pelvis_tx	pelvis_ty	pelvis_tz	hip_flexion_r	hip_adduction_r	hip_rotation_r	knee_angle_r	ankle_angle_r	subtalar_angle_r	mtp_angle_r	hip_flexion_l	hip_adduction_l	hip_rotation_l	knee_angle_l	ankle_angle_l	subtalar_angle_l	mtp_angle_l	lumbar_extension	lumbar_bending	lumbar_rotation
      1.02900000	      0.20338292	     -0.99383837	     -2.90879705	     -0.19081704	      0.97139330	      0.33034677	    -13.23318342	      3.90602623	     -8.61273795	    -11.09799545	     17.68350316	      5.51970101	      3.73933419	     22.39954749	      0.13026209	     -2.19477299	      0.90971172	     -0.06743665	     -5.58028588	     -0.82869310	     -3.92928246	      3.08211371	      6.94213893
      1.03316667	      0.18520154	     -0.91679647	     -2.97844069	     -0.18498315	      0.97077273	      0.33004721	    -13.28700075	      3.72138288	     -8.60990978	    -11.66822245	     17.75931062	      5.60313119	      3.66619301	     22.35723882	      0.25822012	     -2.30066846	      0.94897357	     -0.33267189	     -5.85575561	     -0.79624638	     -3.89558792	      2.98000083	      6.99658311
      1.03733333	      0.18294047	     -0.82193253	     -3.04203756	     -0.17908761	      0.97023003	      0.32972908	    -13.35794713	      3.51838095	     -8.58286186	    -12.23760380	     17.79058159	      5.61800236	      3.60224632	     22.26597861	      0.40479725	     -2.37191424	      0.95642533	     -0.62499985	     -6.15743110	     -0.76146090	     -3.86926876	      2.86812753	      7.01540937
      1.04150000	      0.15404931	     -0.69908521	     -3.09454755	     -0.17316746	      0.96974153	      0.32941647	    -13.39247914	      3.29454499	     -8.52080233	    -12.81278991	     17.74669325	      5.54694614	      3.57480934	     22.25152830	      0.58047131	     -2.51769508	      0.80425303	     -0.91303743	     -6.36210221	     -0.74376599	     -3.80073315	      2.70533827	      7.00453917
      1.04566667	      0.11607958	     -0.59387610	     -3.13183357	     -0.16728000	      0.96926589	      0.32905055	    -13.37455048	      3.08275095	     -8.49798334	    -13.47527232	     17.77626809	      5.52320901	      3.53864386	     22.25567004	      0.74584266	     -2.54736024	      0.58540255	     -1.29420404	     -6.77405796	     -0.69191142	     -3.72850906	      2.59111381	      7.02911029
      1.04983333	      0.07337202	     -0.47248243	     -3.16240681	     -0.16135257	      0.96884297	      0.32867820	    -13.34104097	      2.85711750	     -8.45401365	    -14.15246728	     17.71034050	      5.45187593	      3.51370601	     22.27591736	      0.92745629	     -2.56375387	      0.28921302	     -1.69006263	     -7.17457896	     -0.61982376	     -3.64413843	      2.44395720	      7.02687845
      1.05400000	      0.04000008	     -0.34761432	     -3.18045755	     -0.15540098	      0.96847691	      0.32828202	    -13.30094912	      2.62888215	     -8.40957895	    -14.85995531	     17.60309193	      5.33688311	      3.50802128	     22.29748325	      1.11674111	     -2.54691911	     -0.07700758	     -2.10500257	     -7.60849324	     -0.51515087	     -3.56700068	      2.29071465	      7.01457729
      1.05816667	     -0.03028310	     -0.22121007	     -3.18690018	     -0.14943969	      0.96812288	      0.32787577	    -13.20187664	      2.40691260	     -8.33839583	    -15.59896611	     17.48375129	      5.18643255	      3.52408298	     22.38507915	      1.30576185	     -2.53662281	     -0.53322693	     -2.57731823	     -8.00480396	     -0.42567453	     -3.44593277	      2.13939044	      6.99411328
      1.06233333	     -0.05398608	     -0.06439078	     -3.18453565	     -0.14340723	      0.96786925	      0.32745647	    -13.13824407	      2.14809038	     -8.29186404	    -16.36668050	     17.26411082	      4.99685921	      3.54030234	     22.42354840	      1.52876551	     -2.54270372	     -1.03402783	     -3.00110937	     -8.31395666	     -0.37311848	     -3.36510545	      1.93077055	      6.96417207
      1.06650000	     -0.14591737	      0.04548721	     -3.16251768	     -0.13744928	      0.96756728	      0.32698134	    -12.96094280	      1.94705706	     -8.22311513	    -17.20499690	     17.09878410	      4.80653088	      3.60909459	     22.54607044	      1.71322434	     -2.38311504	     -1.57455121	     -3.56312471	     -8.91796905	     -0.24992926	     -3.22214116	      1.82116386	      6.93200776
      1.07066667	     -0.19388567	      0.18130409	     -3.13434406	     -0.13142223	      0.96737833	      0.32650865	    -12.81738639	      1.71630786	     -8.16871320	    -18.06432838	     16.81832519	      4.57761069	      3.70062050	     22.62320508	      1.92412877	     -2.27135101	     -2.15070501	     -4.07897779	     -9.38088701	     -0.11828752	     -3.11256277	      1.63836968	      6.88829691
      1.07483333	     -0.24770650	      0.33294272	     -3.08155457	     -0.12536599	      0.96721760	      0.32596930	    -12.65055394	      1.47335194	     -8.11290025	    -18.95223507	     16.50580599	      4.28759225	      3.95047785	     22.70786149	      2.16586283	     -2.07182038	     -2.75491458	     -4.58057451	     -9.96050986	      0.17033729	     -3.00802261	      1.46772119	      6.83461167
      1.07900000	     -0.32591108	      0.47474820	     -3.04108210	     -0.11931213	      0.96708105	      0.32545328	    -12.41407104	      1.23522406	     -8.05360665	    -19.91203683	     16.13149846	      4.04683028	      4.10668649	     22.83629668	      2.38340230	     -1.97051899	     -3.40685513	     -5.12693307	    -10.32354278	      0.31522102	     -2.86341596	      1.30893896	      6.77220008
      1.08316667	     -0.39337805	      0.62767211	     -2.97758662	     -0.11322755	      0.96700129	      0.32489256	    -12.17085913	      0.98950065	     -8.00065589	    -20.89995741	     15.69920427	      3.74969339	      4.30231336	     22.94980490	      2.62476398	     -1.80278897	     -4.07200346	     -5.63730144	    -10.76349441	      0.46688003	     -2.73202970	      1.12999416	      6.70497713
      1.08733333	     -0.44469599	      0.78789941	     -2.90381533	     -0.10712077	      0.96697735	      0.32430812	    -11.91705527	      0.73300339	     -7.96343183	    -21.93282328	     15.20707132	      3.44625534	      4.53630566	     23.04376295	      2.87867199	     -1.62345263	     -4.74763846	     -6.12477898	    -11.18321562	      0.61877602	     -2.61424494	      0.93930297	      6.62798656
      1.09150000	     -0.50526014	      0.95566594	     -2.82388209	     -0.10099543	      0.96699004	      0.32370178	    -11.62222718	      0.46637122	     -7.92857592	    -23.01365498	     14.65082863	      3.13732120	      4.80019322	     23.14864258	      3.14203919	     -1.44529847	     -5.43984067	     -6.57876154	    -11.57391033	      0.76239826	     -2.48355168	      0.74148350	      6.54955847
      1.09566667	     -0.47400666	      1.13830315	     -2.70090489	     -0.09480097	      0.96714722	      0.32302941	    -11.42943920	      0.17669437	     -7.98149338	    -24.06672095	     13.86701251	      2.78307750	      9.72872257	     23.14122031	      3.44460721	     -1.21659112	     -6.11830097	     -7.02953873	    -12.05703349	      2.96190374	     -2.45562714	      0.50906138	      6.46988144
      1.09983333	     -0.54592665	      1.32228137	     -2.63270638	     -0.08866595	      0.96721425	      0.32241849	    -11.04177692	     -0.11954249	     -7.93103819	    -25.27906821	     13.25651651	      2.47256243	      9.77942599	     23.26104492	      3.71512897	     -1.10918104	     -6.83854631	     -7.38732565	    -12.29954578	      2.95036342	     -2.30596406	      0.29712824	      6.37929089
      1.10400000	     -0.58224688	      1.50227356	     -2.52602979	     -0.08250846	      0.96736282	      0.32174530	    -10.68759614	     -0.40662103	     -7.91363472	    -26.47978011	     12.51533612	      2.14692185	      9.88831710	     23.33495080	      4.00357434	     -0.92554961	     -7.55804313	     -7.70080358	    -12.63623915	      2.93714240	     -2.20713892	      0.08667970	      6.28699848
      1.10816667	     -0.60107178	      1.68877984	     -2.41334015	     -0.07633876	      0.96755644	      0.32104926	    -10.31792972	     -0.70896039	     -7.91564883	    -27.73566462	     11.70346291	      1.82978929	     10.09124608	     23.37559144	      4.30383373	     -0.72712797	     -8.25887084	     -7.98097190	    -12.99449104	      2.91784091	     -2.11459491	     -0.13504945	      6.18001278
      1.11233333	     -0.62506137	      1.89573727	     -2.30385539	     -0.07016978	      0.96777381	      0.32032730	     -9.90359576	     -1.04308397	     -7.91616235	    -29.04981051	     10.85562917	      1.49765001	     10.58376665	     23.39595583	      4.63001305	     -0.48794803	     -8.91871929	     -8.17414812	    -13.37907314	      2.87372964	     -2.01829406	     -0.37948003	      6.05404417
      1.11650000	     -0.60883379	      2.10422087	     -2.18793720	     -0.06396633	      0.96809181	      0.31961773	     -9.52007432	     -1.38363349	     -7.93922347	    -30.36214128	      9.82637783	      1.22350709	     10.78012672	     23.37286134	      4.94903698	     -0.36274768	     -9.58571154	     -8.34673287	    -13.51404708	      2.85146666	     -1.96766121	     -0.62368634	      5.98385685
      1.12066667	     -0.55645799	      2.33970962	     -2.04279457	     -0.05775784	      0.96845803	      0.31880494	     -9.15523566	     -1.77205591	     -8.02766745	    -31.69724690	      8.69615506	      0.87804341	     15.69895706	     23.28160102	      5.32684742	     -0.11522251	    -10.20684291	     -8.45660658	    -13.89753391	      2.27000420	     -1.96969871	     -0.89668352	      5.85683559
      1.12483333	     -0.57484125	      2.54710506	     -1.93699406	     -0.05161792	      0.96876247	      0.31807989	     -8.65850699	     -2.12130788	     -8.01014834	    -33.11309431	      7.62668274	      0.59327283	     15.73717399	     23.28827833	      5.64246604	     -0.00262256	    -10.87536426	     -8.48006292	    -14.04430908	      2.26311111	     -1.87900276	     -1.13760052	      5.76940585
      1.12900000	     -0.56060234	      2.77507983	     -1.81473428	     -0.04546900	      0.96913493	      0.31731130	     -8.18158093	     -2.49977475	     -8.01680876	    -34.53984206	      6.47025831	      0.29896916	     15.80278825	     23.22537759	      5.99329273	      0.15916248	    -11.48409629	     -8.45834350	    -14.23805174	      2.24779309	     -1.83266993	     -1.39256280	      5.67071606
      1.13316667	     -0.53782155	      3.00219733	     -1.69139581	     -0.03933585	      0.96953993	      0.31653120	     -7.68670416	     -2.88548511	     -8.03139669	    -35.99475739	      5.24454590	      0.01122508	     15.87955990	     23.12540045	      6.34609259	      0.32936342	    -12.04303865	     -8.39281545	    -14.42308287	      2.22617241	     -1.79396098	     -1.65094963	      5.56868211
